<svg id="Layer_1" data-name="Layer 1" xmlns="http://www.w3.org/2000/svg" viewBox="0 0 823.84 787.43"><defs><style>.cls-1{fill:#fff;}.cls-2{fill:none;stroke:#000;stroke-miterlimit:10;stroke-width:7px;}.cls-3{fill:#020202;}</style></defs><path class="cls-1" d="M775,464.51c-7.54.91-16.63,5.62-24,7.85-7.58,2.32-7,8.06-7.19,15.79-.11,5.64-.34,11.29.53,16.91a10.47,10.47,0,0,0,6.1,8.54c32.81,15.91,56,41.72,74,72.69,10.71,18.43,16.94,38.59,21.39,59.34,5,23.41,7.41,47.11,5.39,71-2.48,29.3-13.11,55.67-30.54,79.41-13.11,17.86-29.55,32.15-47.41,44.82-48.93,34.7-103.46,55.69-162.44,65.71-34.94,5.93-70.07,9.59-105.49,8.5-68-2.09-131.22-20-187.94-58.46-21.46-14.56-40-32.39-57.73-51.22-9.07-9.66-18-19.49-27-29.23-21.08-22.83-42.15-45.68-61.21-70.27a250.09,250.09,0,0,1-38.4-70.38c-11.1-31.64-18.38-64.19-23.91-97.17-3.79-22.59-1.86-44.46,7.11-65.67,3.29-7.76,7.9-14.71,12.44-21.68,4-6.19,10.48-9.76,17.34-11.87,11.81-3.64,23.49-4.86,36.08-1.42,26,7.07,50.46,17.75,75,28.35a329.75,329.75,0,0,0,84,24c20.66,3,41.1,1.57,61.53-1.93,23.21-4,46.43-8.07,69.87-10.51,16.82-1.74,33.66-3.68,50.63-3.59,3.61,0,7.39.47,11.38-2-1.65-3.54-4.71-4.87-7.12-6.81C490.09,434.79,466,395.94,455.89,349c-9.71-45.09-2.14-87.81,21.54-127.56,9.08-15.24,19-29.77,31.67-42.33,17.76-17.62,38.66-30.06,62.06-38.51A215.8,215.8,0,0,1,654.35,128c11.61.49,22.77,3.64,33.86,6.82a198.54,198.54,0,0,1,61.28,29.84A120.31,120.31,0,0,1,776.7,192a137.76,137.76,0,0,1,14.42,25.36l32.55,73.58c1.75,3.94,3.66,7.81,5.75,11.58,8.45,15.2,20.22,32.77,33.9,43.14Z" transform="translate(-107.42 -127.81)"/><path class="cls-2" d="M448.36,329.26" transform="translate(-107.42 -127.81)"/><path class="cls-2" d="M539.21,329.26" transform="translate(-107.42 -127.81)"/><path class="cls-2" d="M524.07,329.26" transform="translate(-107.42 -127.81)"/><path class="cls-2" d="M508.93,329.26" transform="translate(-107.42 -127.81)"/><path class="cls-2" d="M493.79,329.26" transform="translate(-107.42 -127.81)"/><path d="M641.56,338.94a53.21,53.21,0,0,1,13.7-57.25,70.17,70.17,0,0,1,17.41-12.32c6.46-3.08,13.54-4.61,20.57-5.7,25.71-3.72,52.55,6.82,64.4,30.92,4.5,9,7.08,19.18,6.34,29.29-1.75,23.59-20.09,43.06-42.7,48.41a52,52,0,0,1-42.56-6.21c-28.71-18.94-34.65-61.15-1.54-78.87a58.41,58.41,0,0,1,12.86-5c15.62-3.7,33.18,1.17,44,13.33,7.77,8.62,12,20.73,9.73,32.32-5.14,24-37.43,34.69-56.87,20.72a31.87,31.87,0,0,1-11.69-17c-1.76-5.31-1.86-11.43.74-16.53,7.14-14.3,29.54-18.62,40.36-6.29a20.43,20.43,0,0,1,4.07,7.51c.82,2.82,1.27,6,0,8.77-3.08,7-13.65,9-18.82,3.56a9.17,9.17,0,0,1-2.09-4.59,8.08,8.08,0,0,0,6.91,5.72c4.31.46,9.19-1.87,10.42-6a7,7,0,0,0-.53-4.73,16,16,0,0,0-3.38-5.42c-7-7-20.24-4.67-25.57,3.23a10.87,10.87,0,0,0-1.45,3.09,14.43,14.43,0,0,0-.07,8.58c5.45,20.07,33.53,19.26,44.18,4.19,4.85-6.67,4.14-15.72.63-22.85a32.15,32.15,0,0,0-18.84-16.08,37,37,0,0,0-20.09-.63A51.52,51.52,0,0,0,680.53,298a17.31,17.31,0,0,0-1.84,1.16c-21.86,14.91-13.67,44.93,6,57.69a40.91,40.91,0,0,0,33.75,4.79c19.87-4.69,35.25-22.22,34.63-42.95-1.49-22.44-17.6-40.69-40.19-44-12.06-2-24.59.08-35.82,4.82-25.28,8.88-40.52,32.14-35.54,59.39Z" transform="translate(-107.42 -127.81)"/><path d="M286.47,678.56c17.28-1.25,34.32.63,51.37,3.36,39.38,5.68,79,9.58,118.41,15.34,67.17,8.64,149.84,34.17,68.45,103.91-17.26,11.6-30.93,28.09-50.32,36.71-7.6,3.9-12.1,11.29-18.92,15.88-59,20.28-147.52-39.6-184.06-84-15.21-21.19-37.07-49.71-35.86-76.59C243.39,674,269.72,679.6,286.47,678.56Z" transform="translate(-107.42 -127.81)"/><path class="cls-3" d="M718,439.43c17-3.73,35-8.41,41.43-26.8,20.67-45.65,26.09-68.62,69-99.12,5.07-3.87,7.21-3.3,11.2,1.74,13.3,16.83,30.36,29.19,47.74,41.31,12.48,8.71,24.29,18.37,36.77,27.08,7.39,5.16,8.63,11.84,5.84,19.27-18,54.93-82.29,61.18-131.46,67.25-15.79,2.11-31.79,2.78-47.25,7.27a19.36,19.36,0,0,1-9.41-.15C727.89,474,714.06,458.91,718,439.43Z" transform="translate(-107.42 -127.81)"/></svg>